<?xml version="1.0" encoding="utf-8" ?>
<svg baseProfile="full" height="300mm" version="1.1" viewBox="0,0,200,300" width="200mm" xmlns="http://www.w3.org/2000/svg" xmlns:ev="http://www.w3.org/2001/xml-events" xmlns:xlink="http://www.w3.org/1999/xlink"><defs /><rect fill="#222222" height="300" width="200" x="0" y="0" /><text fill="#FFFFFF" style="font-size:12px; font-family:Arial; font-weight:bold;" x="10" y="20">All Runs Forms</text><text fill="#FFFFFF" style="font-size:4px; font-family:Arial" x="10" y="280">ATHLETE</text><text fill="#FFFFFF" style="font-size:9px; font-family:Arial" x="10" y="290">Jiaming</text><text fill="#FFFFFF" style="font-size:4px; font-family:Arial" x="120" y="280">STATISTICS</text><text fill="#FFFFFF" style="font-size:3px; font-family:Arial" x="120" y="285">Number: 18</text><text fill="#FFFFFF" style="font-size:3px; font-family:Arial" x="120" y="290">Weekly: 2.0</text><text fill="#FFFFFF" style="font-size:3px; font-family:Arial" x="141" y="285">Total: 34.2 km</text><text fill="#FFFFFF" style="font-size:3px; font-family:Arial" x="141" y="290">Avg: 1.9 km</text><text fill="#FFFFFF" style="font-size:3px; font-family:Arial" x="167" y="285">Min: 1.0 km</text><text fill="#FFFFFF" style="font-size:3px; font-family:Arial" x="167" y="290">Max: 3.0 km</text><polyline fill="none" points="18.209553158725612,42.57619022059953 17.5231124808779,41.47800753838965 17.14869029284455,41.47800753838965 15.994221879867837,42.779556909168605 15.744607087923214,42.94225015304983 15.058166409959085,43.877734462643275 14.402927580988035,44.569177368684905 13.654083204921335,44.52850430397666 13.123651771922596,44.52850430397666 12.437211094074883,44.85388865493587 12.25,46.52147749069263 12.25,46.846859514625976 12.25,47.578967679612106 12.343605547095649,48.75847123362473 12.281201849109493,49.24654020962771 12.25,50.141331112157786 12.281201849109493,50.548053300066385 12.374807396088727,51.32082382164663 12.374807396088727,52.662999108753866 12.374807396088727,54.41188448126195 12.343605547095649,54.73725729319267 12.312403698102571,56.8115000402031 12.312403698102571,57.136870050715515 12.374807396088727,57.42156849836465 12.312403698102571,58.47901732916944 12.468412943184376,60.634573674964486 12.62442218803335,61.895363055722555 12.811633282108232,63.07480602286523 12.874036979977973,63.48150933699799 14.059707242064178,65.67769697846961 14.870955316000618,65.63702699413989 15.214175654924475,65.67769697846961 15.49499229597859,65.67769697846961 16.15023112494964,65.67769697846961 16.399845916894265,65.63702699413989 17.273497688933276,65.55568700781441 17.866332819801755,65.51501700573135 18.14714946085587,65.51501700573135 18.490369799779728,65.47434699776932 19.145608628634363,65.51501700573135 19.707241910742596,65.5963570039894 20.019260400673375,65.5963570039894 20.30007704172749,65.55568700781441 21.017719568568282,65.5963570039894 21.73536209552549,65.5963570039894 22.07858243456576,65.5963570039894 22.484206471475773,65.55568700781441 23.233050847542472,65.55568700781441 23.607473035459407,65.55568700781441 24.29391371353995,65.51501700573135 24.699537750333548,65.55568700781441 26.259630200453103,65.5963570039894 26.60285053937696,65.55568700781441 27.38289676432032,65.5963570039894 28.630970724276267,65.55568700781441 29.37981510022655,65.47434699776932 30.191063174046576,65.47434699776932 30.97110939922277,65.4336769838992 31.719953775056638,65.47434699776932 32.125577812083066,65.51501700573135 32.780816641054116,65.55568700781441 33.15523882897105,65.51501700573135 33.49845916801132,65.47434699776932 34.216101694852114,65.4336769838992 34.59052388288546,65.39300696415012 34.96494607091881,65.39300696415012 35.77619414497167,65.39300696415012 36.96186440670863,65.39300696415012 37.36748844385147,65.39300696415012 37.67950693378225,65.39300696415012 38.39714946062304,65.4336769838992 38.833975346642546,65.47434699776932 39.582819722709246,65.55568700781441 40.64368258859031,65.51501700573135 41.04930662550032,65.4336769838992 41.954160246648826,65.47434699776932 43.10862865939271,65.47434699776932 43.45184899843298,65.47434699776932 44.26309707236942,65.4336769838992 44.88713405246381,65.4336769838992 45.885593220358714,65.39300696415012 46.29121725750156,65.39300696415012 46.977657935232855,65.39300696415012 48.10092449921649,65.39300696415012 48.444144838140346,65.39300696415012 48.78736517718062,65.4336769838992 49.848228043178096,65.39300696415012 50.22265023109503,65.35233693834743 50.909090909175575,65.35233693834743 51.252311247983016,65.35233693834743 51.5955315871397,65.35233693834743 52.656394453020766,63.52217963573639 52.687596302013844,62.74944294424495 52.75,62.42407948576147 52.71879815112334,60.79725649624015 52.687596302013844,60.431220014957944 52.687596302013844,59.048411191790365 52.687596302013844,57.177541275304975 52.687596302013844,56.8521713122318 52.75,56.48612964974018 52.71879815112334,55.754044882487506 52.687596302013844,55.4286732574692 52.656394453020766,55.10330125273322 52.62519260391127,54.41188448126195 52.656394453020766,54.005167932162294 52.62519260391127,53.801809434895404 52.62519260391127,53.06971761654131 52.656394453020766,52.744342857797164 52.62519260391127,52.459639632259496 52.656394453020766,50.91410276159877 52.656394453020766,50.222675597207854 52.656394453020766,49.93796979566105 52.656394453020766,48.96183341086726 52.656394453020766,48.595781385025475 52.687596302013844,48.270401403016876 52.656394453020766,47.578967679612106 52.656394453020766,47.29425917734625 52.62519260391127,46.9282049612375 52.62519260391127,46.23676790803438 52.687596302013844,45.911385171697475 52.62519260391127,45.21994559559971 52.62519260391127,44.85388865493587 52.62519260391127,44.487831233476754 52.593990755151026,43.79638812554185 52.62519260391127,43.43032931498601 52.62519260391127,43.0642700237222 52.656394453020766,42.33214999851771 52.62519260391127,41.233966354542645 52.593990755151026,40.827230573486304 52.593990755151026,40.54251517349621 52.56278890604153,39.76971476437757 51.90755007707048,39.32230302153039 51.56432973803021,39.36297684608144 51.189907550113276,39.36297684608144 50.472265023039654,39.32230302153039 50.160246533108875,39.32230302153039 49.75462249619886,39.32230302153039 49.06818181811832,39.32230302153039 48.72496147919446,39.36297684608144 48.412942989263684,39.32230302153039 47.63289676432032,39.32230302153039 47.32087827427313,39.36297684608144 47.00885978434235,39.40365066457889 46.260015408392064,39.40365066457889 45.94799691834487,39.36297684608144 45.69838212628383,39.36297684608144 44.57511556253303,39.40365066457889 44.26309707236942,39.36297684608144 43.888674884452485,39.36297684608144 43.1398305085022,39.36297684608144 42.76540832046885,39.32230302153039 42.484591679414734,39.32230302153039 41.57973805873189,39.32230302153039 40.9557010786375,39.36297684608144 40.61248073971365,39.36297684608144 40.26926040055696,39.36297684608144 39.55161787359975,39.40365066457889 39.145993836573325,39.40365066457889 38.49075500771869,39.40365066457889 38.14753466879483,39.40365066457889 37.835516178864054,39.40365066457889 37.086671802797355,39.40365066457889" stroke="#ff0000" stroke-linecap="round" stroke-linejoin="round" stroke-width="0.5"><title>2022-07-10 3.0km</title></polyline><polyline fill="none" points="66.49803149607033,42.2634878930985 68.01279527554289,41.847785497724544 69.60728346463293,41.74385986098787 70.56397637818009,41.847785497724544 72.47736220480874,41.951711119152606 74.3907480314374,41.951711119152606 80.84842519694939,41.951711119152606 82.28346456680447,42.05563672573771 83.39960629912093,41.951711119152606 86.42913385853171,42.47133899992332 88.66141732269898,42.99096650123829 90.0167322838679,43.40666822937783 93.6840551183559,46.21264854626497 93.60433070873842,46.94012311974075 93.6840551183559,47.77152172237402 93.60433070873842,49.53824052971322 94.2421259842813,51.097106425557286 94.6407480314374,51.82457600889029 95.11909448821098,52.655968908802606 95.99606299214065,53.799132560612634 96.39468503929675,54.318751795974094 97.1919291340746,55.46191277867183 97.75,58.78746156638954 96.55413385806605,59.51492329343455 95.91633858252317,60.034538357751444 94.6407480314374,60.96984451828757 94.00295275589451,61.38553575053811 91.5314960628748,62.73653058044147 86.03051181090996,63.360065790999215 83.47933070873842,62.52868538873736 81.88484251964837,62.73653058044147 80.6092519685626,62.94437571126036 79.89173228340223,62.94437571126036 79.01476377947256,62.94437571126036 77.34055118076503,62.63260799203999 75.90551181090996,62.42476277035894 74.3907480314374,62.320840136380866 72.71653543319553,60.13846132537583 72.79625984234735,58.683538401674014 72.87598425196484,57.95607582532102 72.79625984234735,55.877607226371765 72.79625984234735,55.1501417834661 72.63681102357805,53.695208668126725 72.63681102357805,52.86381698178593 72.63681102357805,52.136348460102454 72.63681102357805,51.61672763247043 72.71653543319553,51.720651828101836 72.31791338557377,49.018617806141265 72.63681102357805,47.35582254250767 72.63681102357805,46.42049850022886 72.71653543319553,44.757697169377934 71.042322834488,41.847785497724544 70.3248031497933,42.05563672573771 65.46161417337134,41.63993420894258 63.06988188996911,41.63993420894258 60.51870078733191,43.51059362333035 59.00393700785935,45.27732300257776 58.44586614193395,45.90087350161048 57.96751968516037,46.42049850022886 57.25,48.18722065939801 57.25,49.018617806141265 59.80118110217154,51.097106425557286 61.47539370087907,50.993182138423435 64.58464566944167,52.86381698178593 64.4251968502067,53.5912847603322 64.50492126028985,54.94229437765898 67.13582677161321,56.39722494513262 68.73031496070325,56.50114844314521 70.3248031497933,56.293301431520376 70.96259842487052,56.39722494513262 71.60039370087907,56.39722494513262 72.79625984234735,57.644305922382046 72.71653543319553,58.475692027190235 72.79625984234735,59.09923096897546 72.87598425196484,59.82669237750815 72.79625984234735,60.96984451828757 74.3907480314374,62.63260799203999 75.26771653536707,62.73653058044147 76.46358267730102,62.63260799203999 77.10137795237824,62.52868538873736 79.81200787378475,62.52868538873736 81.167322834488,62.42476277035894 83.1604330711998,62.42476277035894 83.7185039371252,62.42476277035894 84.35629921266809,62.21691748773446 85.0738188973628,61.28161296516191 84.99409448867664,60.65807593456702 84.91437007859349,59.72276936471462 84.99409448867664,58.05999909626553 84.91437007859349,54.42267559748143 84.91437007859349,52.24027258018032 84.83464566897601,49.74608951288974 84.83464566897601,49.22646694100695 84.83464566897601,47.1479728614795 84.83464566897601,46.52442345448071" stroke="#4dd2ff" stroke-linecap="round" stroke-linejoin="round" stroke-width="0.5"><title>2022-07-02 1.8km</title></polyline><polyline fill="none" points="114.48271449608728,35.97144739655778 113.95933087263256,35.847399675199995 112.91256362572312,34.97906461072853 112.817402967019,33.80060704238713 111.72305539087392,32.87024349582498 109.77226188546047,32.80821918710717 108.24969134456478,32.25 107.29808475659229,32.25 106.06099619204178,33.80060704238713 106.06099619204178,34.79299258024548 106.06099619204178,35.78537580079865 106.10857652174309,36.28156654207851 106.15615685097873,36.777756703872 106.20373718021438,37.70811169585795 106.10857652174309,38.08025312243262 106.15615685097873,38.452394222986186 106.15615685097873,39.50679223850602 106.15615685097873,40.065001893468434 106.10857652174309,41.1193959081138 105.87067487463355,43.60031268186867 105.87067487463355,44.90278819037485 105.96583553333767,46.88750509894453 105.96583553333767,47.38368287793128 105.87067487463355,48.996256658720085 105.82309454516508,49.43041009272565 105.87067487463355,49.92658490274334 106.01341586280614,50.98095445081708 106.01341586280614,51.78723528125556 106.01341586280614,53.15170704832417 106.01341586280614,53.58585623727413 106.01341586280614,54.02000498273992 106.10857652174309,55.75659552970319 106.10857652174309,56.19074205789366 106.10857652174309,56.62488814239623 106.01341586280614,57.555199687427375 105.96583553333767,57.9893443780893 106.01341586280614,58.42348862529616 106.01341586280614,59.229755336476956 106.01341586280614,59.53985751030268 106.15615685097873,61.21440533970599 106.10857652174309,61.71056639260496 106.25131750991568,63.57116518166731 106.29889783891849,64.25338269679924 106.20373718021438,65.43175582558615 106.25131750991568,65.98993143028929 106.44163882732391,67.10628044098848 106.48921915679239,67.54041537540616 106.58437981572933,67.97454986633966 106.67954047443345,68.90483656799188 106.77470113313757,70.0211779224046 107.1077634387184,70.88944139296655 107.25050442712381,71.81972171462257 108.48759299167432,72.75 108.96339628566056,72.62596301286248 109.43919957941398,72.62596301286248 110.20048485021107,72.56394450567313 110.58112748526037,72.56394450567313 110.96177012030967,72.56394450567313 111.15209143795073,72.4399074644025 112.0085373672191,72.3778889302921 112.43676033173688,72.3778889302921 112.817402967019,72.31587038692669 114.86335713113658,72.19183327301289 116.10044569568709,72.2538518345973 116.71898997807875,72.31587038692669 117.67059656605124,72.4399074644025 118.05123920133337,72.4399074644025 118.57462282455526,72.50192598954891 119.47864908305928,72.4399074644025 119.85929171810858,72.4399074644025 120.33509501232766,72.4399074644025 121.09638028265908,72.4399074644025 121.85766555322334,72.50192598954891 122.95201312936842,72.19183327301289 123.38023609411903,72.19183327301289 124.04636070551351,72.31587038692669 124.85522630531341,72.4399074644025 125.52135091717355,72.4399074644025 126.42537717567757,72.62596301286248 127.61488541052677,72.56394450567313 127.94794771657325,72.56394450567313 128.37617068132386,72.56394450567313 128.75681331637315,72.50192598954891 129.4705182572361,72.50192598954891 131.27857077447698,72.50192598954891 131.8019543979317,72.3778889302921 132.27775769191794,72.2538518345973 133.37210526829585,72.19183327301289 133.94306922098622,72.12981470255181 139.17690545506775,69.40098864308675 139.1293251258321,69.21493168285815 139.03416446689516,68.84281751801609 139.03416446689516,68.03656904306263 138.84384314902127,66.3620480930258 138.7011021610815,65.67983396255295" stroke="#4dd2ff" stroke-linecap="round" stroke-linejoin="round" stroke-width="0.5"><title>2022-06-19 1.6km</title></polyline><polyline fill="none" points="151.37133072363213,43.35672590677859 147.8840508805588,46.86944362119539 147.25,47.69596290332265 152.16389432456344,53.17162877175724 154.06604696670547,53.06831471336773 155.0963796474971,53.06831471336773 158.90068493131548,52.65505832951749 162.07093933410943,50.58877279033186 162.7842465750873,50.38214390480425 162.8635029355064,56.37435710115824 162.62573385518044,56.99423832970206 162.46722113527358,60.19694936496671 162.3087084144354,61.2300788659486 162.15019569452852,62.88308293139562 166.826320938766,63.50295846106019 167.69814089965075,63.50295846106019 169.6795499017462,63.60627099627163 170.39285714225844,63.50295846106019 175.3067514677532,63.08970816840883 175.6237769080326,61.02345308632357 175.70303326798603,59.99032328353496 175.38600782770663,54.30808241822524 178.87328767077997,50.17551495874068 180.29990215273574,49.55562775890576 182.36056751478463,48.10922218213091 184.02495107613504,47.076073532225564 187.75,48.21253696415806 185.29305283725262,42.736832736234646 184.1834637960419,42.736832736234646 180.4584148726426,42.01362335088197 179.2695694710128,42.11693902238039 177.44667318928987,42.22025467926869 175.2274951073341,43.35672590677859 174.1179060661234,43.666672288731206 173.1668297452852,43.25341041618958 171.10616438323632,42.323570320615545 170.39285714225844,41.70367624529172 168.6492172209546,41.393729003786575" stroke="#4dd2ff" stroke-linecap="round" stroke-linejoin="round" stroke-width="0.5"><title>2020-01-29 1.2km</title></polyline><polyline fill="none" points="18.980320699047297,87.08971411571838 16.146501457784325,89.70632903580554 14.729591836221516,92.78469121817034 12.25,99.40313948295079 13.666909620631486,101.86580730509013 13.903061224147677,104.02063693164382 18.862244897987694,107.560704617179 20.27915451861918,107.09895733220037 23.585276967845857,106.32937807450071 25.474489795509726,106.48329397081397 28.544460641220212,106.48329397081397 34.5663265301846,109.71552260813769 34.33017492713407,111.25467562046833 36.45553935831413,116.33386462426279 40.47011661808938,117.56517948687542 43.06778425630182,118.48866469005588 46.49198250705376,117.71909374347888 51.92346938792616,105.2519661700353 51.92346938792616,102.0197238526307 51.805393585935235,100.94230754580349 52.51384839648381,95.70912696863525 52.631924198009074,94.4777865880169 52.27769679296762,91.55334742343985 52.631924198009074,86.32012025639415 52.75,84.0113353098277 50.978862973395735,84.31917359493673 46.61005830904469,85.24268791032955 42.47740524774417,86.16620141733438 38.935131195001304,86.62795786792412 31.968658891972154,87.24363282008562 28.426384839694947,86.47403907345142" stroke="#4dd2ff" stroke-linecap="round" stroke-linejoin="round" stroke-width="0.5"><title>2019-08-19 1.1km</title></polyline><polyline fill="none" points="70.2804347826168,86.33012290403713 65.93695652158931,86.78920310805552 64.05869565252215,86.94222979841288 63.119565217290074,89.39065380208194 60.771739130374044,92.91025329078548 59.83260869560763,104.38712607056368 62.88478260859847,108.36574597738218 66.17173913074657,108.36574597738218 66.64130434766412,105.61131841945462 74.38913043495268,93.36933061422314 81.08043478289619,105.76434236229397 82.95869565196335,105.45829445379786 86.12826086999848,104.99922242353205 88.12391304364428,104.69317429175135 91.29347826074809,104.69317429175135 96.45869565242901,101.02058974222746 96.57608695700765,99.0312677398324 96.10652173915878,92.14512397220824 91.64565217401832,84.95288108510431 88.00652173906565,86.02406932285521 86.48043478280306,86.33012290403713 82.72391304373741,86.63617639592849 76.0326086957939,86.33012290403713 73.56739130429924,86.33012290403713 71.21956521691754,86.48314966121688 69.69347826112062,86.33012290403713 62.06304347794503,89.39065380208194 60.889130434487015,91.53302011557389 57.25,99.49034238338936 60.30217391299084,105.45829445379786 60.53695652168244,106.68248555168975 64.88043478224427,108.21272241417319 66.52391304355115,107.75365159008652 69.45869565196335,107.14155684481375 75.44565217429772,107.14155684481375 79.08478260878474,112.65039668651298 85.18913043476641,117.39409669174347 88.35869565187022,117.24107444554102 91.7630434781313,117.54711891489569 97.39782608672976,114.79271547554526 97.5152173913084,112.956442495808 97.39782608672976,110.35505026963074 97.2804347826168,108.82481653406285 96.92826086981222,106.07039018149953 97.04565217392519,104.69317429175135 97.04565217392519,101.17361435492057 97.16304347850382,96.4298409653129 96.92826086981222,92.75722747191321 96.92826086981222,90.30881132977083 97.75,86.33012290403713 96.92826086981222,85.87104249885306 93.05434782616794,86.33012290403713 89.06304347841069,86.02406932285521 85.54130434803665,86.33012290403713 83.7804347826168,86.78920310805552 80.49347826093435,87.40130973490886 73.91956521710381,87.24828311149031" stroke="#ff8000" stroke-linecap="round" stroke-linejoin="round" stroke-width="0.5"><title>2019-08-15 2.0km</title></polyline><polyline fill="none" points="108.65677966037765,93.04761472670361 105.33898305008188,96.17946447164286 104.19491525413468,97.22341225366108 102.8220338979736,99.16216959082521 102.25,100.65351888572332 105.68220338923857,108.25936643232126 109.34322033869103,112.13683555193711 113.34745762636885,111.83856921887491 113.11864406755194,108.11023271095473 116.09322033869103,104.5310168658616 116.89406779641286,104.5310168658616 117.69491525366902,104.82928533153608 120.09745762683451,101.54832741757855 125.58898305008188,100.50438405398745 125.13135593151674,103.6362109456677 128.44915254134685,108.8559011007892 132.68220338923857,108.8559011007892 134.16949152527377,108.5576338104438 137.601694914978,108.5576338104438 139.66101694852114,108.8559011007892 142.06355932122096,107.66283141612075 142.75,104.82928533153608 142.63559321966022,100.65351888572332 142.2923728809692,96.62687079492025 142.75,93.495022420655 136.91525423666462,90.36316444806289 134.16949152527377,90.51230075955391 132.91101694852114,90.51230075955391 129.59322033869103,90.8105733175762 120.21186440624297,93.495022420655 119.52542372839525,92.30193480080925 118.38135593151674,92.00366267864592 116.77966101653874,91.70539046882186" stroke="#4dd2ff" stroke-linecap="round" stroke-linejoin="round" stroke-width="0.5"><title>2019-08-14 1.0km</title></polyline><polyline fill="none" points="154.70750708179548,85.39703559258487 150.4624645896256,102.147477514809 150.4624645896256,103.64303937216755 154.13385269138962,107.38193446595687 155.51062322966754,107.08282336033881 162.5092067993246,105.73682230513077 167.32790368283167,106.03593380365055 168.93413597764447,107.98015641514212 168.93413597764447,109.7748201667564 169.04886685544625,112.91547416977119 171.57294617593288,116.20567280205432 177.30949008464813,118.14987611875404 178.57152974512428,118.0003221485531 182.47237960342318,117.55166010640096 184.07861189777032,116.95344374456909 186.7174220965244,111.12081591808237 187.06161473086104,106.33504521474242 186.94688385305926,104.24126350414008 186.7174220965244,100.95102645794395 186.83215297432616,97.95989270322025 186.83215297432616,94.66963548900094 186.7174220965244,92.72538762399927 184.07861189777032,84.94835927593522 180.98087818687782,85.54659432126209 178.91572237946093,85.24747684213798 175.81798866856843,85.09791806992143 168.70467422157526,84.35012388112955 165.03328611934558,85.54659432126209 163.54178470280021,85.84571171260905 158.49362606275827,85.54659432126209 156.54320113360882,85.84571171260905 149.42988668568432,92.42627224046737 147.25,97.06255087419413 151.60977337136865,103.34392717527226 151.265580737032,104.98904317745473 153.5601983005181,106.63415653863922 156.6579320114106,105.43771071953233 158.37889518402517,103.19437104440294 158.6083569410257,101.84836488158908 159.75566572276875,98.4085633228533 168.58994334284216,100.80146997713018 171.22875354113057,104.39081948227249 176.85056657204404,103.9421514814021 178.68626062339172,104.24126350414008 181.554532578215,104.09170750365593 182.93130311602727,103.9421514814021 186.1437677051872,100.20324383792467 185.7995750703849,94.22096323221922 185.914305949118,90.63157810573466 186.1437677051872,88.98643905424979 187.75,84.79880045971368 185.7995750703849,85.39703559258487 180.86614730907604,85.54659432126209 179.1451841359958,85.69615302793682 174.78541076509282,85.39703559258487 173.86756373941898,85.24747684213798 172.1466005668044,84.79880045971368" stroke="#ff8000" stroke-linecap="round" stroke-linejoin="round" stroke-width="0.5"><title>2019-08-11 2.0km</title></polyline><polyline fill="none" points="15.850000000093132,144.06074717716547 16.637499999720603,153.44631088397 21.024999999906868,152.56641801045043 21.81249999953434,152.41976912342943 23.27500000037253,152.27312021504622 26.649999999906868,151.68652436626144 28.449999999720603,149.7800854948582 29.012500000186265,148.6068905449356 29.799999999813735,144.50069743412314 33.84999999962747,143.47414653451415 34.0749999997206,144.79399749817094 34.41250000009313,148.3135915939929 33.84999999962747,155.64603969699237 40.8249999997206,158.13905986305326 45.8874999997206,157.25917109870352 48.69999999925494,156.81922642776044 51.28749999962747,157.4058192796656 51.62499999953434,155.2060943194665 52.75,151.39322631427785 52.0749999997206,144.35404736944474 52.0749999997206,142.7408952495898 46.44999999925494,139.95453548792284 43.0749999997206,140.39448754291516 39.362499999813735,140.39448754291516 35.08749999990687,140.24783687922172 33.62499999953434,140.39448754291516 29.68749999953434,139.66123401076766 26.537500000093132,139.3679324480472 22.93749999953434,139.66123401076766 21.699999999720603,139.80788475973532 17.762500000186265,141.7143425520626 16.637499999720603,143.03419582761126 14.5,145.96719689987367 13.375,146.9937452528975 12.25,150.07338401820743 12.474999999627471,151.83317336067557 16.074999999720603,157.84576369420392 21.47499999962747,160.9253692002385 23.72499999962747,159.0189478569082 23.949999999720603,157.69911557732848 26.537500000093132,153.00636454380583 31.9375,147.7269934337237 32.72499999962747,151.39322631427785 33.1750000002794,153.29966212506406 38.012500000186265,157.69911557732848 40.59999999962747,157.4058192796656 42.06249999953434,157.4058192796656 46.0,157.69911557732848 48.47499999962747,157.4058192796656 50.94999999925494,157.11252289661206 52.52499999990687,153.8862570321071 52.52499999990687,150.80662995221792 52.18749999953434,148.16694208589615 51.512500000186265,146.40714632248273 52.299999999813735,142.59424492856488 49.37499999953434,140.39448754291516 42.737499999813735,139.95453548792284 41.049999999813735,140.24783687922172 38.799999999813735,139.80788475973532 35.1999999997206,140.10118619422428 29.462499999906868,139.0746307997033 27.662500000093132,139.3679324480472" stroke="#ff7f00" stroke-linecap="round" stroke-linejoin="round" stroke-width="0.5"><title>2019-08-10 2.0km</title></polyline><polyline fill="none" points="60.596153845544904,138.26815955596976 59.096153846010566,139.92267406801693 57.25,144.8862016669009 63.826923076529056,157.67093539598864 65.44230769202113,157.37011995352805 68.44230769202113,156.91889662574977 69.94230769202113,156.76848880550824 73.40384615352377,155.86604142503347 82.40384615352377,165.19129291712306 86.44230769202113,165.34169950790238 92.32692307652906,164.89047966978978 94.17307692300528,165.0408863046905 96.36538461502641,162.63437751715537 96.71153846103698,160.97989946615417 96.71153846103698,154.06114429351874 96.71153846103698,152.5570609361166 96.5961538455449,148.94725192151964 96.82692307699472,145.18702075327747 96.94230769155547,141.57718592393212 96.94230769155547,140.82513540971559 90.36538461502641,135.2599445474334 89.3269230760634,135.1095335666323 81.24999999953434,134.65830049209762 79.51923076855019,134.8087115387898 75.01923076901585,134.95912256336305 71.67307692253962,135.1095335666323 70.63461538404226,134.8087115387898 67.63461538404226,134.65830049209762 66.24999999953434,134.8087115387898 61.98076923098415,136.76405314949807 60.94230769248679,138.41857007634826 59.21153846150264,140.67472524102777 57.48076923051849,149.2480698225554 61.17307692300528,152.85787778277881 60.94230769248679,154.2115525084082 66.5961538455449,157.37011995352805 70.40384615352377,149.39847874012776 71.90384615305811,149.54888763546478 72.36538461502641,149.54888763546478 77.32692307652906,144.58538249286357 83.32692307652906,154.51236887311097 84.59615384601057,154.2115525084082 85.98076923098415,153.76032779749949 89.3269230760634,153.30910288915038 93.71153846103698,153.15869454212952 97.75,149.09766088274773 97.63461538404226,147.44316110073123 97.40384615352377,144.8862016669009 97.75,144.28456323116552 97.40384615352377,141.27636578399688 97.17307692300528,139.7722637677798 96.5961538455449,136.91446388873737 92.21153846150264,134.95912256336305 89.55769230704755,135.2599445474334 87.82692307652906,135.2599445474334 84.94230769202113,135.1095335666323 83.21153846103698,135.41035550634842 75.01923076901585,137.81692786468193 74.90384615352377,137.96733845036943 73.51923076855019,137.36569597572088 69.71153846103698,135.56076644349378" stroke="#ff8300" stroke-linecap="round" stroke-linejoin="round" stroke-width="0.5"><title>2019-08-09 2.0km</title></polyline><polyline fill="none" points="115.18277310905978,140.16604107257444 111.5525210085325,134.54650058492552 105.88025210099295,137.504157358082 105.08613445330411,140.3139232964022 105.88025210099295,150.22198310878593 105.42647058842704,152.58807261358015 108.1491596638225,154.8062765066279 109.39705882314593,155.1020366587909 116.88445378094912,154.65839639829937 125.27941176434979,159.53842858271673 127.66176470555365,164.71419461094774 129.1365546216257,165.15783046919387 132.76680672261864,165.8972231342923 134.35504201659933,166.34085847449023 142.75,161.46085905097425 142.40966386534274,153.7711152943084 142.52310924371704,152.44019218161702 142.52310924371704,148.89105533366092 142.63655462116003,147.11648224841338 142.40966386534274,143.8630901868455 142.52310924371704,139.87027656112332 142.52310924371704,138.83510008943267 141.3886554618366,135.87744720175397 137.3046218487434,134.10285132436547 131.85924369748682,133.21555222023744 127.20798319298774,133.21555222023744 125.3928571427241,133.65920186962467 121.42226890753955,134.54650058492552 118.35924369702116,134.25073443260044 114.38865546230227,134.25073443260044 111.5525210085325,134.84226665087044 108.82983193267137,137.65203997050412 107.92226890753955,140.01815882779192 104.29201680701226,143.4194450051291 102.47689075628296,144.60249839071184 102.25,144.15885353263002 102.47689075628296,144.3067351737991 106.4474789914675,153.17959412641358 112.80042016739026,153.4753547537839 114.16176470555365,154.06687574845273 121.19537815125659,152.44019218161702 122.55672268848866,155.1020366587909 124.48529411712661,158.79903127730358 125.27941176434979,162.348133421503 132.31302520958707,165.74934464425314 133.90126050403342,166.6366152598057 136.28361344523728,167.81964153854642 137.4180672261864,168.11539789254311 142.06932773068547,157.02447554387618 142.18277310859412,154.95415659353603 142.52310924371704,152.14443125203252 142.29621848696843,150.3698638646165 142.29621848696843,146.96860101784114 142.29621848696843,145.04614305403084 142.29621848696843,141.05333409039304 142.06932773068547,139.87027656112332 141.95588235231116,138.6872176504694 140.14075630204752,136.17321287852246 137.4180672261864,135.13803263031878 134.92226890707389,134.99014965153765 129.81722689047456,131.88460210745689 120.96848739450797,134.25073443260044 117.45168067188933,134.54650058492552" stroke="#ff7f00" stroke-linecap="round" stroke-linejoin="round" stroke-width="0.5"><title>2019-08-07 2.0km</title></polyline><polyline fill="none" points="155.41532258084044,141.6978665321949 152.69354838738218,146.09735305147478 154.2177419355139,149.9291476730723 154.32661290327087,150.9225734435604 156.06854838784784,156.3154384890804 161.0766129028052,157.45077468757518 167.7177419355139,156.88310675375396 170.65725806402043,161.56635729561094 176.31854838691652,164.12084808474174 179.58467741962522,164.12084808474174 181.0,163.9789321059361 187.75,161.56635729561094 187.6411290327087,157.59269161894917 186.6612903228961,152.6255866890424 186.55241935467348,152.05791593861068 186.55241935467348,149.0776390618994 185.46370967756957,141.5559472811292 185.8991935485974,137.58219983353047 177.625,136.16300038073678 174.4677419355139,136.16300038073678 171.31048387056217,135.8791602415149 170.00403225841,136.02108032116666 167.1733870971948,136.73068041034276 165.7580645158887,136.87260036583757 162.60080645186827,137.01452030049404 160.96774193597957,136.73068041034276 157.70161290327087,136.58876043389319 154.2177419355139,138.00795926479623 153.34677419345826,139.285236442287 152.04032258084044,141.9817049729172 151.82258064532652,143.1170579069876 149.8629032257013,147.37461960309884 149.6451612901874,148.65188447688706 154.32661290327087,150.78065553848865 153.23790322616696,153.33517466083867 148.55645161308348,155.8896870725439 147.25,155.32201822771458 152.47580645186827,156.0316042319173 153.8911290327087,156.0316042319173 157.48387096775696,156.45735558628803 161.0766129028052,156.45735558628803 162.70967741915956,156.3154384890804 166.08467741915956,156.3154384890804 167.1733870971948,156.3154384890804 170.5483870971948,157.87652542005526 170.43951612897217,159.0118597962428 170.33064516121522,160.14719284663443 173.1612903228961,164.26276404270902 174.90322580654174,163.9789321059361 179.58467741962522,164.40467998042004 187.6411290327087,162.27593874343438 186.87903225794435,158.86994307133136 186.55241935467348,157.02502376801567 186.44354838691652,154.18667954357807 186.44354838691652,152.90942193963565 186.2258064514026,151.9159981990233 186.00806451635435,150.638737612986 186.87903225794435,145.95543444238137 186.55241935467348,144.53624721011147 186.33467741962522,140.70443133771187 186.6612903228961,139.9948341488489 184.70161290327087,136.73068041034276 183.3951612911187,136.73068041034276 176.97177419345826,135.73724014108302 175.88306451635435,135.59532001952175 173.37903225794435,135.59532001952175 171.74596774205565,136.02108032116666 168.91532258084044,136.4468404367799 167.82661290373653,136.4468404367799 165.21370967756957,136.4468404367799" stroke="#ff7e00" stroke-linecap="round" stroke-linejoin="round" stroke-width="0.5"><title>2019-08-06 2.0km</title></polyline><polyline fill="none" points="22.402291105128825,190.49665522942087 22.83894878672436,196.90019901801134 14.324123989325017,192.77347561705392 12.25,195.0502906878828 24.803908355534077,196.47329740726855 16.72574123973027,203.16140117036412 16.289083558134735,203.3037007523817 20.21900269575417,203.44600031297887 32.117924528196454,201.73840421187924 35.93867924483493,209.4225631171139 37.357816711999476,211.98393596190726 38.5586253372021,211.98393596190726 41.724393531214446,212.1262342556729 43.580188679508865,212.26853252918227 47.18261455511674,211.98393596190726 52.75,209.7071604321245 52.75,208.99566698860144 51.65835579531267,203.16140117036412 51.87668463587761,198.89240406436147 52.313342318404466,197.32710044214036 52.313342318404466,192.91577671444975 52.4225067384541,189.92744930187473 45.98180592991412,185.5160920957569 38.231132075656205,186.5122067577322 35.2836927222088,185.80069638887653 33.53706199442968,185.80069638887653 30.69878706196323,185.23148771963315 29.388814015779644,184.94688326044707 24.47641509445384,184.51997641572962 22.94811320770532,184.51997641572962 17.81738544534892,187.79292411368806 17.926549864932895,188.93133812886663 15.743261456023902,192.91577671444975 21.419811320956796,203.5882998528541 26.659703503828496,203.44600031297887 29.716307277791202,203.01910156820668 34.19204851752147,203.3037007523817 36.375336927361786,207.71497748262482 36.26617250684649,210.9878473218414 36.593665768392384,212.55312901356956 41.83355795126408,212.4108307819697 43.25269541796297,212.69542722444749 47.837601078208536,212.98002358427038 48.929245283361524,212.69542722444749 51.221698112785816,210.84554886142723 51.00336927222088,210.84554886142723 50.78504043165594,210.9878473218414 51.00336927222088,206.29198716941755 51.11253369273618,198.6078035926912 52.09501347690821,193.62728189176414 51.76752021629363,190.06975081464043 51.65835579531267,188.7890364495106" stroke="#ff7e00" stroke-linecap="round" stroke-linejoin="round" stroke-width="0.5"><title>2019-08-05 2.0km</title></polyline><polyline fill="none" points="64.86278195446357,187.90025983651867 60.80263157887384,196.89770792081254 61.91917293239385,191.20815554138971 57.25,198.35316907300148 58.46804511267692,206.15969356085407 58.77255639061332,206.02738014661008 65.77631578920409,202.58722459507408 68.71992481173947,201.92565472325077 72.37406015070155,201.13177023961907 80.18984962441027,205.89506671269191 86.58458646619692,211.58452692435822 89.4266917295754,211.9814646766754 90.8477443610318,212.64302721078275 94.09586466196924,213.03996449959232 96.83646616525948,212.90765208913945 96.73496240610257,212.77533965941984 96.53195488685742,212.24608974833973 96.43045112770051,210.65833816013765 96.3289473685436,206.2920069557731 96.22744360892102,202.98416628624545 96.63345864648,201.3963984781294 96.53195488685742,200.07325651368592 96.3289473685436,193.19288717064774 97.34398496244103,189.2234195669298 97.24248120328411,188.8264718503342 90.44172932347283,186.84173066203948 79.37781954882666,184.46003550040768 78.4642857145518,184.59235206211451 73.89661654131487,185.51856745564146 72.27255639061332,185.25393458246253 70.34398496244103,186.04783296998357 69.43045112770051,188.42952396033797 66.38533834600821,191.60510221484583 64.86278195446357,195.0452994381776 64.65977443568408,195.971504152345 65.06578947370872,202.3225967042963 64.1522556389682,203.11648014490493 69.63345864648,204.7042449407163 70.75,204.04267661372432 75.92669172910973,202.05796873616055 81.5093984962441,207.87976619059918 81.5093984962441,209.73214844980976 83.84398496244103,212.11377722182078 89.32518796995282,212.11377722182078 93.08082706760615,212.11377722182078 95.82142857182771,211.7168395279441 96.63345864648,211.9814646766754 97.75,211.05527631763835 97.64849624084309,209.46752264437964 96.63345864648,203.24879398406483 95.11090225540102,201.3963984781294 95.71992481173947,200.9994560913765 95.82142857182771,197.55928146152291 95.6184210521169,194.2514089299948 94.90789473708719,190.0173144780565 92.57330827089027,188.03257589653367" stroke="#ff7f00" stroke-linecap="round" stroke-linejoin="round" stroke-width="0.5"><title>2019-08-03 2.0km</title></polyline><polyline fill="none" points="114.079207920935,186.27038479276234 111.7735148514621,191.49751694238512 111.57301980163902,192.67361747077666 108.46534653473645,199.5995114687248 108.46534653473645,202.34371880069375 103.05198019836098,203.51980508241104 102.25,203.51980508241104 103.8539603962563,203.2584527087747 113.3774752477184,202.6050714412122 114.88118811883032,202.73574773280416 118.49009901005775,202.73574773280416 125.30693069286644,204.0425096009276 126.61014851508662,204.69588981964625 126.71039603976533,207.30940592690604 126.3094059410505,209.00818730611354 129.91831683181226,212.53641525667626 133.7277227723971,212.01371569687035 136.83539603976533,211.88304075895576 138.43935643602163,211.7523658023565 142.54950495064259,208.61616111977492 142.75,205.61062132479856 142.64975247578695,203.51980508241104 142.34900990128517,202.4743951302371 137.93811881216243,186.5317421251093 133.3267326732166,186.00902738433797 132.32425742596388,186.66242076241178 128.01361386151984,185.87834865122568 125.60767326736823,184.57156027370365 123.00123762339354,185.22495470097056 119.39232673263177,186.00902738433797 118.38985148537904,186.00902738433797 115.38242574268952,186.40106346877292 110.97153465403244,189.9293805017369 111.17202970338985,191.62819485506043 109.96905940584838,202.21304245170904 112.47524752467871,204.0425096009276 115.48267326783389,203.38912890502252 118.18935643602163,203.51980508241104 119.49257425731048,203.51980508241104 121.99876237660646,203.91183349961648 126.40965346526355,208.48548568645492 126.50990098994225,209.92291440587724 131.12128712888807,212.92843972629635 133.92821782175452,211.7523658023565 137.0358910895884,211.09899073286215 138.53960396070033,211.49101583153242 141.44678217871115,211.09899073286215 141.94801980210468,208.61616111977492 141.14603960420936,201.29830747534288 141.84777227742597,198.1620661764755 141.045792079065,187.8385276416666 139.44183168327436,186.13970609835815" stroke="#ff7f00" stroke-linecap="round" stroke-linejoin="round" stroke-width="0.5"><title>2019-08-02 2.0km</title></polyline><polyline fill="none" points="161.0591603051871,189.81681432260666 155.59732824377716,188.33911944931606 153.4332061065361,185.5180590127129 154.97900763293728,186.05540452484274 154.05152671737596,192.36919078888604 149.7232824419625,204.4592989361845 147.25,204.19063159194775 149.4141221367754,205.53396753093693 152.6087786257267,204.19063159194775 154.5667938925326,203.7876304278616 158.17366412188858,203.51896288676653 161.16221373993903,203.65329666709295 168.47900763340294,202.30995798308868 171.1583969462663,207.5489677642472 172.80725190788507,211.98195275029866 174.66221373993903,211.71328760124743 177.44465648848563,211.71328760124743 178.88740457966924,211.31028973055072 182.08206106815487,211.31028973055072 183.4217557250522,211.57895499723963 187.23473282437772,209.16096477454994 187.75,208.48929969669553 186.41030534310266,203.7876304278616 186.10114503791556,202.17562400689349 186.51335877832025,194.38421984110028 186.30725190835074,189.9511501021916 180.53625954175368,186.05540452484274 178.99045801488683,186.05540452484274 175.17748091509566,185.3837225859752 174.04389312956482,185.11504967330256 167.44847328215837,186.3240771626006 166.31488549616188,186.45841345214285 157.6583969462663,187.26443077868316 156.8339694654569,188.60779142106185 156.31870228983462,189.41380686522461 155.90648854896426,189.81681432260666 154.66984732775018,191.83184896263992 153.94847328215837,193.44387349887984 152.81488549616188,196.66791410173755 155.39122137380764,201.10095149144763 155.2881679381244,202.17562400689349 158.37977099232376,204.99663339048857 162.91412213724107,204.4592989361845 164.15076335845515,204.19063159194775 166.72709923656657,203.9219641687232 168.27290076296777,203.7876304278616 170.95229007583112,206.3399681537412 171.1583969462663,208.22063352819532 174.35305343428627,212.38495032669744 176.9293893123977,211.98195275029866 179.6087786257267,211.57895499723963 182.39122137380764,211.71328760124743 187.13167938916013,210.36996067984728 187.44083969434723,206.87730150972493 187.54389312956482,203.38462908705696 187.23473282437772,198.2799301680061 187.23473282437772,197.3395878057927 187.75,196.8022488815477 187.64694656431675,193.57820874924073 186.9255725191906,190.6228287080885 183.9370229006745,186.05540452484274" stroke="#ff7f00" stroke-linecap="round" stroke-linejoin="round" stroke-width="0.5"><title>2019-07-31 2.0km</title></polyline><polyline fill="none" points="24.60106382984668,235.64331421349198 19.81382978707552,239.38757964456454 19.33510638261214,240.13643076381413 20.48404255323112,248.1241352307261 22.78191489400342,251.61873247445328 27.28191489353776,252.2427661936381 29.86702127661556,252.4923795539653 31.11170212738216,252.6171862068004 32.93085106369108,252.3675728830276 36.09042553184554,257.73424328881083 37.81382978707552,259.35671840945724 42.50531914830208,258.9823013470741 45.09042553184554,259.2319127403898 50.7393617015332,258.7326898809988 51.69680851045996,258.4830783425714 51.98404255323112,254.7388965174323 52.17553191492334,253.24121919751633 52.55851063784212,250.6202775760903 52.75,249.37220731424168 52.27127659553662,245.25356252666097 51.69680851045996,242.38298018614296 47.86702127661556,236.51697761373362 42.98404255323112,235.26888676866656 40.7819148930721,234.52003138698637 38.2925531915389,234.6448406627751 35.70744680799544,234.89445915963734 34.55851063830778,234.76964992057765 31.2074468084611,234.89445915963734 26.51595744676888,234.52003138698637 24.31382978707552,235.7681233251933 19.71808510646224,240.8852812271216 16.4627659576945,242.50778831448406 17.32446808507666,243.75586859456962 20.38829787261784,245.8776008907007 20.38829787261784,249.12259304343024 18.66489361738786,252.9916060558171 16.27127659553662,253.36602574121207 15.31382978707552,253.49083226645598 12.25,255.11331543780398 13.49468085123226,256.8606015643454 23.06914893630892,255.36292795988265 30.24999999953434,252.9916060558171 36.6648936169222,257.3598255162942 39.72872340399772,259.85594090400264 40.97340425522998,259.7311353076948 43.46276595722884,259.9807464823243 45.95212765969336,260.3551631075097 47.2925531915389,260.4799686130136 49.87765957415104,260.4799686130136 51.21808510599658,260.4799686130136 51.1223404253833,253.24121919751633 51.02659574430436,250.86989141028607 50.93085106369108,249.62182151252637 51.60106382938102,247.25048368849093 51.88829787215218,245.1287547989632 51.69680851045996,243.63106064876774 51.60106382938102,240.26123921992257 51.88829787215218,238.7635365446331 50.16489361645654,236.14255055156536 47.77127659553662,236.0177414942882 46.43085106369108,235.89293241879204 45.66489361645654,235.64331421349198 42.69680851092562,235.518505083106" stroke="#ff7c00" stroke-linecap="round" stroke-linejoin="round" stroke-width="0.5"><title>2019-07-30 2.1km</title></polyline><polyline fill="none" points="62.6650417833589,236.17666039662436 57.25,244.8530875967699 63.56754874624312,254.1176646699314 65.5981894149445,253.97060855600284 69.54665738157928,253.2353276659851 72.81824512546882,251.91182071197545 77.33077994454652,252.50004623952555 78.684540390037,255.00000090064714 79.02298050140962,258.088171625277 93.4630919219926,262.20571786840446 94.81685236748308,262.0586629352765 97.63718662969768,260.14694684988353 97.75,258.9705043792492 97.2987465178594,256.176448007056 96.8474930357188,253.67649626469938 96.96030640648678,252.0588771260227 96.8474930357188,248.38246033509495 96.8474930357188,246.61777551134583 96.39623955404386,243.52956963243196 96.39623955404386,240.29429617937421 89.74025069642812,234.41195419605356 85.67896935949102,232.20606709871208 83.87395543139428,232.0590077874367 78.9101671311073,232.64724490430672 72.93105849577114,232.64724490430672 70.5619777161628,232.3531263889745 67.62883008364588,232.64724490430672 64.35724233975634,234.55901316396194 63.11629526456818,235.88254291104386 61.19846796663478,238.08842195983743 60.40877437358722,238.8237139027333 59.73189415037632,239.4119470709702 59.05501392809674,243.23545429343358 61.76253481861204,248.97068792313803 66.16225626738742,253.08827142347582 74.3976323120296,252.6471025676583 76.5410863510333,253.2353276659851 80.03830083506182,257.35289373935666 80.03830083506182,258.38228262914345 82.63300835667178,262.20571786840446 85.00208913628012,262.0586629352765 87.37116991635412,261.7645530044101 89.74025069642812,262.20571786840446 92.33495821710676,262.9409922125633 97.07311977725476,260.8822226964403 97.07311977725476,259.8528363610385 97.41155988862738,254.4117768323049 96.8474930357188,246.4707183028804 96.8474930357188,243.9707424803637 96.8474930357188,242.79428112326423 96.8474930357188,241.4707604548894 96.39623955404386,238.23548039142042 94.36559888580814,234.7060721104499 93.011838439852,234.55901316396194 86.5814763228409,234.7060721104499 83.87395543139428,234.41195419605356 80.03830083506182,233.97077716322383 76.65389972133562,234.55901316396194 74.05919220065698,233.97077716322383 72.4798050140962,233.529599936679 63.90598885854706,235.00018993986305 62.6650417833589,236.17666039662436 59.28064066870138,239.117830529809" stroke="#ff7d00" stroke-linecap="round" stroke-linejoin="round" stroke-width="0.5"><title>2019-07-19 2.0km</title></polyline></svg>
